<svg xmlns="http://www.w3.org/2000/svg" viewBox="0 0 119.05 134.95"><defs><style>.cls-1{fill:#fff;}.cls-2{fill:#482771;}.cls-3{fill:#5b2b86;}</style></defs><g id="Layer_2" data-name="Layer 2"><g id="Layer_2-2" data-name="Layer 2"><path class="cls-1" d="M59.53,134.45a.5.5,0,0,1-.26-.08L.74,97.88a.49.49,0,0,1-.24-.42V33.14a.51.51,0,0,1,.26-.44L59.29.56a.51.51,0,0,1,.48,0L118.29,32.7a.51.51,0,0,1,.26.44V97.46a.49.49,0,0,1-.24.42L83,119.89,59.79,134.37A.5.5,0,0,1,59.53,134.45Z"/><path class="cls-1" d="M59.53,1l58.52,32.14V97.46l-35.31,22-15.36,9.58L59.53,134,1,97.46V33.14L59.53,1m0-1a1,1,0,0,0-.48.12L.52,32.26a1,1,0,0,0-.52.88V97.46a1,1,0,0,0,.47.85L59,134.8a1,1,0,0,0,1.06,0l7.85-4.9,15.36-9.58,35.31-22a1,1,0,0,0,.47-.85V33.14a1,1,0,0,0-.52-.88L60,.12A1,1,0,0,0,59.53,0Z"/><polygon class="cls-2" points="59.53 133.95 1 97.46 1 33.14 59.53 1 59.53 133.95"/><polygon class="cls-1" points="59.53 28.02 1 60.73 1 49.88 59.53 16 59.53 28.02"/><polygon class="cls-3" points="59.53 133.95 118.05 97.46 118.05 33.14 59.53 1 59.53 133.95"/><polygon class="cls-1" points="59.53 28.02 118.05 60.73 118.05 49.88 59.53 16 59.53 28.02"/><polygon class="cls-1" points="82.74 119.47 67.38 129.05 67.38 76.74 82.74 84.5 82.74 119.47"/></g></g></svg>