<svg xmlns="http://www.w3.org/2000/svg" viewBox="0 0 303.1 134.95"><defs><style>.cls-1{fill:#fff;}.cls-2{fill:#482771;}.cls-3{fill:#5b2b86;}.cls-4{fill:#8abf50;}</style></defs><g id="Layer_2" data-name="Layer 2"><g id="Layer_2-2" data-name="Layer 2"><path class="cls-1" d="M96.38,107.64c-.93,0-1.6,0-2-.45a3.65,3.65,0,0,0-1.11-.77c-1.25-.45-1.7-1.25-1.7-1.79a6.9,6.9,0,0,1,.4-1.56c.17-.52.37-1.19.6-1.93a73.3,73.3,0,0,1,2.64-7.64,6,6,0,0,0,.52-1.44A37,37,0,0,1,98,86.28c.35-.76.68-1.5,1-2.14.41-.92.42-1.11.42-1.27v0s0,0-.08-.08a3,3,0,0,1-1.48-2.31c0-.72.24-1.07.78-1.19a4,4,0,0,1,1.89-.8,5.2,5.2,0,0,0,.56-.12c.07,0,.11-.08.21-.34a24.61,24.61,0,0,1,1-2.3,40.19,40.19,0,0,0,1.8-4.44,2.14,2.14,0,0,1-1-.45,5.15,5.15,0,0,1-1.42-1.59,2.1,2.1,0,0,0-.22-.33,1.73,1.73,0,0,1-.48-1.13c0-1.35.94-2.09,3.09-3.45a104.08,104.08,0,0,1,11.75-6.6,31.72,31.72,0,0,1,13.64-3.07c2.79,0,4.45.08,6.06,1.7,1.79,1.74,2.26,2.31,2.26,5.15a15,15,0,0,1-1,4.67C136,68,135.45,69,133.25,72.5a55.5,55.5,0,0,1-14.21,15,13,13,0,0,1-3,1.46,18,18,0,0,1-5.62.85c-2,0-3-.16-4.18-1.07a4.18,4.18,0,0,0-.39-.3,6.57,6.57,0,0,0-.3.69,138.71,138.71,0,0,0-5.58,16.5,1.45,1.45,0,0,1-.74,1.19A4.15,4.15,0,0,1,96.38,107.64Zm12.53-25.81A13.22,13.22,0,0,0,111,83.54a2.52,2.52,0,0,0,.59.3c.37,0,.64,0,3-1.82a42.11,42.11,0,0,0,10.1-11c2.63-4.38,4.16-7.9,4.25-9.7l-.23,0a2.62,2.62,0,0,0-.7.13c-.9.24-1.81.46-2.72.67-3.34.78-6.79,1.59-9.61,4.09-.77,1.8-1.63,3.63-2.47,5.41A81,81,0,0,0,108.91,81.83Z"/><path class="cls-1" d="M129.33,55.19c2.76,0,4.23.07,5.71,1.55,1.75,1.7,2.11,2.14,2.11,4.8a14.36,14.36,0,0,1-.92,4.5c-.64,1.69-1.19,2.65-3.4,6.2a54.71,54.71,0,0,1-14.08,14.9,12.29,12.29,0,0,1-2.86,1.4,17.73,17.73,0,0,1-5.43.82c-1.93,0-2.85-.15-3.86-1C106,88,106,88,105.77,88s-.28.15-.65,1a133.79,133.79,0,0,0-5.61,16.67c0,.37-.18.52-.55.82a3.68,3.68,0,0,1-2.58.66c-.83,0-1.38,0-1.66-.3a4.07,4.07,0,0,0-1.29-.88c-1-.37-1.38-1-1.38-1.33a6.57,6.57,0,0,1,.37-1.4c.74-2.29,2.12-7.16,3.22-9.52a6.8,6.8,0,0,0,.56-1.55c.36-1.77,2.2-5.46,3.22-7.82a3.3,3.3,0,0,0,.46-1.48.75.75,0,0,0-.28-.44c-.64-.52-1.29-1-1.29-1.92s.37-.59.65-.81a4.36,4.36,0,0,1,2.21-.81c.27-.08.36-.15.55-.67.46-1.4,2-4.28,2.85-7,0-.22-.09-.37-.27-.37a1.62,1.62,0,0,1-1-.36,6.21,6.21,0,0,1-1.56-1.85,1.21,1.21,0,0,1-.37-.81c0-1,.64-1.62,2.85-3a102.39,102.39,0,0,1,11.69-6.56,31,31,0,0,1,13.44-3M111.57,84.34c.55,0,.92-.08,3.31-1.92A43,43,0,0,0,125.1,71.28c2.3-3.84,4.32-8,4.32-10.11,0-.22-.27-.37-.73-.37a2.92,2.92,0,0,0-.83.15c-4.33,1.18-8.93,1.62-12.61,4.94-2.3,5.39-5.34,10.85-6.91,16.09a14.93,14.93,0,0,0,2.4,2,2.09,2.09,0,0,0,.83.37m17.76-30.15a32.26,32.26,0,0,0-13.85,3.11,106.52,106.52,0,0,0-11.81,6.63c-2.06,1.31-3.32,2.2-3.32,3.88a2.25,2.25,0,0,0,.61,1.47,1.57,1.57,0,0,1,.16.25,5.71,5.71,0,0,0,1.54,1.72,3,3,0,0,0,.71.41c-.47,1.36-1.1,2.74-1.61,3.89-.43.94-.79,1.75-1,2.35l0,0-.35.07a4,4,0,0,0-2,.81,1.49,1.49,0,0,0-1.13,1.67,3.32,3.32,0,0,0,1.53,2.59,8.4,8.4,0,0,1-.34.84c-.27.65-.61,1.38-1,2.15A35.86,35.86,0,0,0,95.22,92a5.51,5.51,0,0,1-.49,1.34,71.4,71.4,0,0,0-2.66,7.7c-.23.73-.43,1.4-.6,1.92a5.39,5.39,0,0,0-.42,1.71c0,.74.54,1.72,2,2.27a3,3,0,0,1,.93.66,3.06,3.06,0,0,0,2.36.58,4.66,4.66,0,0,0,3.2-.88,2,2,0,0,0,.93-1.54,142.45,142.45,0,0,1,5.54-16.35l0-.1c1.21.93,2.35,1.09,4.37,1.09a19.05,19.05,0,0,0,5.79-.88A13.39,13.39,0,0,0,119.33,88a56.14,56.14,0,0,0,14.35-15.2c2.22-3.56,2.81-4.57,3.49-6.37a15.89,15.89,0,0,0,1-4.85c0-3-.54-3.69-2.42-5.52s-3.56-1.83-6.4-1.83Zm-13.25,12.3c2.7-2.35,5.91-3.11,9.31-3.9.9-.21,1.82-.43,2.73-.68l.23-.06c-.32,1.84-1.81,5.08-4.11,8.91a42.25,42.25,0,0,1-10,10.87c-2,1.51-2.38,1.68-2.62,1.7a2.65,2.65,0,0,1-.4-.22,11.55,11.55,0,0,1-1.77-1.43,84.94,84.94,0,0,1,4.16-9.87c.83-1.74,1.67-3.54,2.44-5.32Z"/><path class="cls-1" d="M128.41,105.79a3.48,3.48,0,0,1-2.91-1.56,5.35,5.35,0,0,0-.36-.56,4.47,4.47,0,0,1-1-2.73c0-1.44,1-2.75,2.21-4.27a17,17,0,0,0,2.43-3.75l1-2.31a118.61,118.61,0,0,0,5.34-13.94,5.39,5.39,0,0,0,.35-1.7,1.13,1.13,0,0,0-.18-.66,2,2,0,0,1-.28-1c0-.65.95-1.32,1.14-1.45a4.75,4.75,0,0,1,3-.67,7.07,7.07,0,0,1,2.4.25c.58.24.91.37,1.18.91a7.67,7.67,0,0,1,.88,3.76,7.76,7.76,0,0,1-.36,2.24,42,42,0,0,1,8-4.4,5.6,5.6,0,0,1,2.84-.62c3.29,0,5.19.67,6.38,2.26a2.87,2.87,0,0,1,.47,1.63,3.54,3.54,0,0,1-1.38,2.75,4.08,4.08,0,0,1-2.89,1,6.82,6.82,0,0,1-2.41-.5,2.76,2.76,0,0,0-.54-.17c-.15,0-.31.06-1.43.62-10.18,5.05-16.27,11.71-19.17,21a8,8,0,0,1-1.78,2.86C130.39,105.71,129.85,105.79,128.41,105.79Z"/><path class="cls-1" d="M139.18,71.65a6.62,6.62,0,0,1,2.21.22c.55.22.74.29.92.66a7.21,7.21,0,0,1,.83,3.54,7.39,7.39,0,0,1-.46,2.44c-.28.66-.28.66-.28.74s.09.14.19.14.18-.07.46-.29a41.38,41.38,0,0,1,8.37-4.72,5.21,5.21,0,0,1,2.67-.59c3,0,4.88.59,6,2.06a2.4,2.4,0,0,1,.37,1.33,3.05,3.05,0,0,1-1.19,2.36,3.61,3.61,0,0,1-2.58.89,12.87,12.87,0,0,1-2.95-.67c-.27,0-.46.08-1.65.67-8.47,4.2-16,10.4-19.42,21.25a7.52,7.52,0,0,1-1.66,2.66c-.83.88-1.2,1-2.58,1a3,3,0,0,1-2.48-1.32c-.46-.82-1.29-1.55-1.29-3,0-2.29,3.22-4.57,4.6-7.82a145.67,145.67,0,0,0,6.35-16.31A5.7,5.7,0,0,0,136,75c0-.89-.46-.89-.46-1.7,0-.22.37-.67.92-1a4.28,4.28,0,0,1,2.76-.59m0-1a5.29,5.29,0,0,0-3.32.75c-.41.28-1.36,1-1.36,1.87a2.5,2.5,0,0,0,.34,1.28A.69.69,0,0,1,135,75a5,5,0,0,1-.33,1.56,116.54,116.54,0,0,1-5.32,13.88l-1,2.32A16.87,16.87,0,0,1,126,96.36c-1.2,1.53-2.32,3-2.32,4.58a5,5,0,0,0,1.09,3c.12.17.23.33.33.5a4,4,0,0,0,3.35,1.83,3.6,3.6,0,0,0,3.31-1.27,8.37,8.37,0,0,0,1.88-3c2.86-9.1,8.87-15.67,18.91-20.66.41-.2,1-.5,1.19-.55l.39.13a7.28,7.28,0,0,0,2.58.53,4.57,4.57,0,0,0,3.2-1.11,4,4,0,0,0,1.57-3.14,3.44,3.44,0,0,0-.57-1.93c-1.27-1.7-3.37-2.46-6.78-2.46a6.14,6.14,0,0,0-3,.65,39.62,39.62,0,0,0-7,3.74,7.11,7.11,0,0,0,.09-1.11,8.09,8.09,0,0,0-.94-4,2.27,2.27,0,0,0-1.44-1.13,7.26,7.26,0,0,0-2.58-.29Z"/><path class="cls-1" d="M158.79,105.28a6,6,0,0,1-2.73-.5c-2.65-1.37-4.87-3.37-5.39-4.86a13.72,13.72,0,0,1-.58-4.73,15.11,15.11,0,0,1,.54-4.73l0-.12c1.17-4.76,4.12-9,6.8-12.65,1.31-1.72,1.49-1.94,1.86-2.38s.47-.52,1-1.16c2.69-3.28,5.67-6.47,10-6.47,2,0,3.56.25,4.94,1.53a3.78,3.78,0,0,1,1.06,1.48,8.27,8.27,0,0,0,1.06,2.62,2,2,0,0,0,1.32,1c1,0,2,0,2.94-.11s2-.11,3.13-.11c3.65,0,5.75.91,5.75,2.49,0,.87-.89,1.24-1.59,1.53a2.66,2.66,0,0,0-.85.44,1.43,1.43,0,0,1-1,.5,25.86,25.86,0,0,0-2.62.59,30.1,30.1,0,0,1-3.07.68,24.14,24.14,0,0,1-3.39.23h0s0,.06-.08.16c-2.87,9.14-6.36,15.49-11,20a26.74,26.74,0,0,1-2.62,2.39C162.38,104.61,161.14,105.28,158.79,105.28Zm10.43-30.44-.42.32a4.81,4.81,0,0,0-.61.5l-.25.29c-4.55,5.23-7.84,10.49-9.51,15.2a21.52,21.52,0,0,0-1.08,5.07,2.67,2.67,0,0,0,.56,1.56,8,8,0,0,0,.71,1,1.56,1.56,0,0,0,.59-.35,5.67,5.67,0,0,0,.94-1.09l.45-.59c4.22-5.59,7.84-10.4,9-16.4a23.67,23.67,0,0,0,.45-3.74,2.2,2.2,0,0,0-.41-.86,4.82,4.82,0,0,1-.39-.74C169.25,74.93,169.23,74.88,169.22,74.84Z"/><path class="cls-1" d="M170.29,68.18c2.12,0,3.41.29,4.6,1.4a3.31,3.31,0,0,1,.92,1.25,8.43,8.43,0,0,0,1.11,2.73,2.4,2.4,0,0,0,1.75,1.26c2.11,0,3.86-.22,6.07-.22,3.41,0,5.25.81,5.25,2,0,.89-1.75,1-2.3,1.62-.28.3-.37.3-.83.37-1.57.22-3.68,1-5.62,1.26a25.2,25.2,0,0,1-3.31.22c-.37,0-.46.22-.55.51-2.49,7.9-5.71,14.76-10.86,19.78a28,28,0,0,1-2.58,2.36c-1.84,1.48-2.95,2.07-5.15,2.07a5.52,5.52,0,0,1-2.49-.44c-2.58-1.33-4.69-3.25-5.15-4.58a13.23,13.23,0,0,1-.56-4.57,14.86,14.86,0,0,1,.56-4.73c1.1-4.5,3.77-8.48,6.71-12.47,1.29-1.7,1.48-1.92,1.85-2.36.27-.29.46-.52,1-1.18,2.48-3,5.43-6.27,9.57-6.27M158.6,99.24a1.51,1.51,0,0,0,.92-.44A10,10,0,0,0,161,97c4.24-5.61,7.92-10.48,9.12-16.6a25.16,25.16,0,0,0,.46-3.84c0-.59-.65-1.25-.83-1.77s-.28-.59-.37-.59-.18,0-.46.22a10.18,10.18,0,0,0-1.11.89c-.27.36-7,7.6-9.84,15.64a21.85,21.85,0,0,0-1.11,5.24,3.09,3.09,0,0,0,.65,1.84c.73,1.11.82,1.18,1.1,1.18m11.69-32.06c-4.51,0-7.71,3.42-10.34,6.63-.54.65-.72.87-1,1.14l0,0c-.37.45-.56.67-1.87,2.4-2.72,3.67-5.71,8-6.9,12.83l0,.12a15.55,15.55,0,0,0-.56,4.85,14.42,14.42,0,0,0,.61,4.91c.56,1.61,2.83,3.68,5.64,5.12a6.31,6.31,0,0,0,2.95.56c2.5,0,3.8-.71,5.78-2.29a28.78,28.78,0,0,0,2.65-2.42c4.65-4.53,8.16-10.9,11.05-20a24.36,24.36,0,0,0,3.13-.24,31.08,31.08,0,0,0,3.12-.69,23.21,23.21,0,0,1,2.48-.56h.09a1.93,1.93,0,0,0,1.33-.66,3.12,3.12,0,0,1,.66-.32c.76-.31,1.91-.78,1.91-2,0-.9-.61-3-6.25-3-1.14,0-2.17.06-3.16.11s-1.9.11-2.91.11a1.58,1.58,0,0,1-.88-.75,7.51,7.51,0,0,1-1-2.5,4.32,4.32,0,0,0-1.2-1.72c-1.51-1.39-3.14-1.67-5.29-1.67ZM168.57,76a4.94,4.94,0,0,1,.45-.36c.07.13.15.25.22.37a3.17,3.17,0,0,1,.33.61,24.28,24.28,0,0,1-.44,3.63c-1.16,5.89-4.75,10.66-8.91,16.17l-.47.62a5.75,5.75,0,0,1-.85,1l-.15.11c-.15-.21-.33-.49-.42-.62a2.23,2.23,0,0,1-.48-1.29,21.11,21.11,0,0,1,1.05-4.91c1.62-4.58,5-9.92,9.42-15l.25-.29Z"/><path class="cls-1" d="M203.43,109.19a10,10,0,0,1-3.84-.69c-1.29-.41-1.64-3-1.64-3.35a9.65,9.65,0,0,1,.5-3.06c.78-2,1.5-4.3,2.19-6.52.76-2.44,1.54-5,2.41-7.07a10.09,10.09,0,0,0,.5-1.5c-.15,0-.39,0-.77.12l-1.62.29c-2.5.46-5.94,1.09-6.81,1.32-.71.17-.71.17-1.34,1.44a36.59,36.59,0,0,0-2,5.8A13.94,13.94,0,0,1,190,98.7a5,5,0,0,0-.47,2.54,12.08,12.08,0,0,0,.1,1.33c0,.37.08.71.08,1a3.18,3.18,0,0,1-.68,2.11c-.5.61-1.3.61-2.3.61-1.89,0-2.4-.16-3-.63a4.6,4.6,0,0,0-.87-.47,3.47,3.47,0,0,1-1.22-.78l-.17-.19a1.22,1.22,0,0,0-.46-.4c-.74-.3-.87-.56-.87-1.21a13.85,13.85,0,0,1,.59-2.9l.06-.22a8.34,8.34,0,0,0,.28-1c.19-.93.65-2.54,1.1-4.11.3-1,.66-2.31.78-2.86a25.86,25.86,0,0,1-2.68.19c-2.6,0-4.46-.33-5.65-2-.52-.73-.55-3.51-.55-3.54,0-1.44,1.44-1.6,2.52-1.6a8,8,0,0,1,2.26.37,4.2,4.2,0,0,0,1,.22,51.66,51.66,0,0,0,5.6-1c.16,0,.16,0,.41-.49a40.49,40.49,0,0,0,1.95-4.52,43.29,43.29,0,0,1,1.72-4.1,224.46,224.46,0,0,1,11-19.9c1.07-1.63,1.46-1.63,3.64-1.63a4.22,4.22,0,0,1,2.19.6,7.49,7.49,0,0,0,1.27.53,2.07,2.07,0,0,1,1.65,1.88,2.44,2.44,0,0,1-.66,1.71c-3,3.93-4.93,7.84-7.1,12.37-1.46,3-3,6.2-5,9.71a5.09,5.09,0,0,0-.64,1.43l.93-.18c2.41-.45,5.52-1.08,8.25-1.83,1.07-.29,1.09-.32,1.36-.8a133.15,133.15,0,0,0,6.91-15.22l.29-.73c.34-.86.41-1,.49-1.29a2,2,0,0,1,.69-.87,2.52,2.52,0,0,0,.25-.21c.71-.76,1.36-.9,2.85-.9a11.09,11.09,0,0,1,1.77.14,4.34,4.34,0,0,0,.8.08,3.22,3.22,0,0,1,2.34.63,2,2,0,0,1,.74,1.64,11.76,11.76,0,0,1-1.05,3.82c-.93,2.08-2,4-3,5.84s-1.79,3.31-2.57,5c0,.1-.12.25-.18.39l.69-.2c3-.89,3.47-1,4.38-1a6.86,6.86,0,0,1,3.17.55,2.1,2.1,0,0,0,.64.19,3.47,3.47,0,0,1,2.64,2.2,1,1,0,0,0,.09.17,2.82,2.82,0,0,1,.4,1.67c0,1.43-.47,1.68-1.79,1.68a42.58,42.58,0,0,0-6.08.66c-1.16.22-2.42.51-3.55.76s-2.07.46-2.71.57-.79.22-1,.47a21.81,21.81,0,0,0-2.59,5.53c-.27.75-.55,1.51-.85,2.25a73,73,0,0,0-3.55,13l-.38,1.86C206.26,108.37,205.62,109.19,203.43,109.19Z"/><path class="cls-1" d="M204.25,54.08c1.48,0,1.84.67,3.32,1.11.92.3,1.29.89,1.29,1.4a1.94,1.94,0,0,1-.56,1.4c-5.15,6.65-7.08,13.43-12.15,22.14a3.87,3.87,0,0,0-.73,1.92.26.26,0,0,0,.27.3,7.39,7.39,0,0,0,1.29-.23c1.94-.36,5.34-1,8.29-1.84,1.1-.3,1.28-.37,1.65-1a134.58,134.58,0,0,0,7-15.43c.55-1.4.64-1.62.73-1.92s.56-.59.83-.88c.55-.59,1-.74,2.49-.74s1.84.22,2.57.22a2.76,2.76,0,0,1,2,.52,1.53,1.53,0,0,1,.55,1.25,11.3,11.3,0,0,1-1,3.62c-1.75,3.91-3.87,7.23-5.52,10.85a3,3,0,0,0-.37,1c0,.14.18.22.37.22a7.94,7.94,0,0,0,1.1-.3c2.95-.88,3.41-1,4.24-1,2.76,0,2.85.67,3.77.74a3,3,0,0,1,2.21,1.85,2.86,2.86,0,0,1,.46,1.69c0,1.11-.19,1.18-1.29,1.18a42.9,42.9,0,0,0-6.17.67c-2.3.44-5,1.1-6.26,1.33-.82.14-1,.29-1.28.66-1.66,2.29-2.4,5.17-3.5,7.9-2,4.94-3,10.11-4,14.9-.09.44-.55,1.11-2.48,1.11a9.46,9.46,0,0,1-3.69-.67c-.92-.29-1.29-2.5-1.29-2.87a8.9,8.9,0,0,1,.47-2.88c1.65-4.21,2.94-9.59,4.6-13.58a8.08,8.08,0,0,0,.55-1.84c0-.15-.09-.37-.28-.37a6.27,6.27,0,0,0-1.1.15c-2.39.44-7.36,1.32-8.47,1.62-.92.22-.92.22-1.66,1.7-1.47,3-2.39,7.6-2.94,8.48a5.6,5.6,0,0,0-.55,2.81c0,.81.18,1.77.18,2.28a2.67,2.67,0,0,1-.55,1.77c-.37.45-1,.45-1.93.45-1.84,0-2.21-.15-2.67-.52s-1.66-.74-2-1.18a2.34,2.34,0,0,0-.83-.74c-.55-.22-.55-.29-.55-.74a14.48,14.48,0,0,1,.55-2.73,10.8,10.8,0,0,0,.37-1.25c.37-1.85,1.93-6.72,1.93-7.31,0-.29-.18-.29-.27-.29s-1.66.22-3,.22c-2.67,0-4.23-.37-5.24-1.77a10.44,10.44,0,0,1-.46-3.25c0-.59.27-1.1,2-1.1,1.47,0,2.49.59,3.31.59a53.1,53.1,0,0,0,5.71-1c.37-.08.46-.22.74-.74,1.47-2.73,2.3-5.9,3.68-8.63A221,221,0,0,1,201,55.49c.92-1.41,1.11-1.41,3.22-1.41m0-1c-2.29,0-2.88.07-4.05,1.86a221.72,221.72,0,0,0-11,19.94A42.92,42.92,0,0,0,187.44,79a38.64,38.64,0,0,1-1.92,4.46c0,.07-.09.18-.14.26a54.41,54.41,0,0,1-5.43.92,3.89,3.89,0,0,1-.91-.2,8.46,8.46,0,0,0-2.4-.39c-2,0-3,.7-3,2.1,0,0,0,2.93.64,3.83,1.32,1.82,3.3,2.19,6.06,2.19.69,0,1.44-.06,2-.12-.17.61-.4,1.43-.61,2.16-.45,1.57-.92,3.19-1.11,4.14-.06.28-.17.63-.26.91l-.07.22a14.06,14.06,0,0,0-.61,3,1.53,1.53,0,0,0,1.18,1.67,1.21,1.21,0,0,1,.27.26l.18.22a4.24,4.24,0,0,0,1.38.88,4.81,4.81,0,0,1,.77.41c.74.59,1.39.74,3.3.74,1,0,2,0,2.7-.81a3.58,3.58,0,0,0,.78-2.41c0-.28,0-.62-.08-1a11.21,11.21,0,0,1-.1-1.27,4.66,4.66,0,0,1,.4-2.28,14.27,14.27,0,0,0,1-2.85,37.25,37.25,0,0,1,2-5.72,8,8,0,0,1,.58-1.06,3.15,3.15,0,0,1,.42-.11c.87-.23,4.43-.88,6.79-1.31l1.6-.3c-.08.24-.17.49-.26.7-.88,2.12-1.67,4.66-2.43,7.11-.69,2.22-1.4,4.51-2.18,6.48a10.33,10.33,0,0,0-.53,3.25s.22,3.26,2,3.83a10.56,10.56,0,0,0,4,.71c2.66,0,3.31-1.19,3.46-1.9s.26-1.23.38-1.85a71.71,71.71,0,0,1,3.52-12.88c.31-.77.59-1.54.86-2.28a21.57,21.57,0,0,1,2.53-5.41c.11-.15.12-.18.65-.27s1.61-.33,2.73-.57,2.38-.54,3.54-.76a42.45,42.45,0,0,1,6-.65c1.48,0,2.29-.34,2.29-2.18A3.33,3.33,0,0,0,228.9,79l0-.05h0a3.94,3.94,0,0,0-3.1-2.55,1.55,1.55,0,0,1-.46-.15,7.25,7.25,0,0,0-3.37-.59c-.93,0-1.45.09-4.15.89.7-1.47,1.46-2.89,2.27-4.38,1-1.86,2-3.78,3-5.87a12.15,12.15,0,0,0,1.1-4,2.53,2.53,0,0,0-.93-2,3.73,3.73,0,0,0-2.65-.74,5,5,0,0,1-.72-.07,10.69,10.69,0,0,0-1.85-.15c-1.54,0-2.37.15-3.22,1.06l-.19.16a2.57,2.57,0,0,0-.83,1l0,.09c-.06.2-.13.37-.48,1.25l-.23.6-.06.13a131.46,131.46,0,0,1-6.88,15.17c-.18.32-.18.32-1,.55-2.73.76-5.82,1.38-8.22,1.83h-.06c.08-.15.17-.32.29-.51,2-3.54,3.57-6.7,5-9.75,2.16-4.51,4-8.39,7-12.28a2.93,2.93,0,0,0,.77-2,2.55,2.55,0,0,0-2-2.35,6.86,6.86,0,0,1-1.2-.51,4.76,4.76,0,0,0-2.42-.65Z"/><path class="cls-1" d="M245.76,106.31c-2.23,0-4-.78-4.43-1.89a14.16,14.16,0,0,1-.76-4.81,19.44,19.44,0,0,1,.34-3.54q-1,.81-3.74,3.18c-3.28,2.88-5.73,4.42-8.46,5.34a7.41,7.41,0,0,1-3,.69,3.73,3.73,0,0,1-2.47-.74,22.86,22.86,0,0,1-3.4-2.79A4.94,4.94,0,0,1,218.3,98c0-2.38.94-6.43,5.44-12.19a55.7,55.7,0,0,1,11.62-11.1c2.83-2,10.22-6.14,15-6.14a7,7,0,0,1,5.43,2.31,5.41,5.41,0,0,1,.93,1.64c.16.4.78,1.06,1,1.07,2.21,0,2.8,1.24,2.8,2a1.54,1.54,0,0,1-.39,1c-3.77,4.58-7.9,10-9.85,15.5a24.58,24.58,0,0,0-1.63,7.21,10.43,10.43,0,0,0,.87,3.91c.38.76.42.91.42,1.18s-.37,1.32-2,1.6l-.38.08A8.25,8.25,0,0,1,245.76,106.31Zm5.13-31.95c-.3,0-.68,0-2.5,1A58,58,0,0,0,232,87.55c-3.6,4-6.22,8.25-6.22,10.14,0,.84.13,1,.14,1a2.85,2.85,0,0,0,.87-.35,10.85,10.85,0,0,0,2.3-1.63c2.15-1.87,4.31-3.58,6.41-5.24,5-4,9.83-7.77,12.92-12.73a11,11,0,0,1,2.5-2.86,1.1,1.1,0,0,0,.28-.79C251.16,74.6,251,74.39,250.89,74.36Z"/><path class="cls-1" d="M250.37,69.06a6.48,6.48,0,0,1,5.06,2.14,5.05,5.05,0,0,1,.83,1.48c.18.44.92,1.4,1.47,1.4,1.93,0,2.3,1,2.3,1.48a1.08,1.08,0,0,1-.27.73c-3.59,4.36-7.92,10-9.94,15.65a25,25,0,0,0-1.66,7.38,11,11,0,0,0,.92,4.13c.37.74.37.81.37,1s-.28.88-1.57,1.11a10.15,10.15,0,0,1-2.12.29c-2.11,0-3.68-.74-3.95-1.55a13.7,13.7,0,0,1-.74-4.65,22.94,22.94,0,0,1,.46-4.2c0-.15,0-.22-.18-.22a38.6,38.6,0,0,0-4.51,3.68,24.24,24.24,0,0,1-8.29,5.24,6.76,6.76,0,0,1-2.85.67,3.21,3.21,0,0,1-2.21-.67,20.69,20.69,0,0,1-3.31-2.73A4.38,4.38,0,0,1,218.8,98c0-1.77.55-5.76,5.34-11.88a54.43,54.43,0,0,1,11.5-11c3.13-2.21,10.31-6,14.73-6M225.79,99.17a2.24,2.24,0,0,0,1.2-.37,11.12,11.12,0,0,0,2.39-1.7c7.37-6.42,15-11,19.42-18.08a10.41,10.41,0,0,1,2.4-2.73,1.61,1.61,0,0,0,.46-1.18c0-.88-.46-1.25-.74-1.25-.46,0-.92.07-2.76,1a58.81,58.81,0,0,0-16.57,12.33c-3.4,3.76-6.35,8.26-6.35,10.47,0,1.26.28,1.48.55,1.48m24.58-31.11c-4.91,0-12.43,4.2-15.31,6.24a55.82,55.82,0,0,0-11.71,11.19c-4.59,5.87-5.55,10-5.55,12.5a5.37,5.37,0,0,0,1.67,4.1A22.57,22.57,0,0,0,223,105a4.16,4.16,0,0,0,2.74.82,8,8,0,0,0,3.18-.72c2.79-.94,5.29-2.51,8.62-5.43,1.12-1,2-1.78,2.72-2.35a19.26,19.26,0,0,0-.15,2.33,14.51,14.51,0,0,0,.8,5c.44,1.32,2.41,2.21,4.89,2.21a8.25,8.25,0,0,0,1.93-.24l.35-.07c1.76-.3,2.41-1.44,2.41-2.09A2.89,2.89,0,0,0,250,103a10.15,10.15,0,0,1-.81-3.68,24.24,24.24,0,0,1,1.6-7c1.93-5.42,6-10.79,9.77-15.34a2.07,2.07,0,0,0,.5-1.37c0-.85-.67-2.44-3.2-2.48a2.4,2.4,0,0,1-.64-.77,6.11,6.11,0,0,0-1-1.75,7.52,7.52,0,0,0-5.83-2.5Zm-24.12,30c0-.09,0-.21,0-.36,0-1.75,2.62-6,6.09-9.8,3.93-4.41,9.41-8.48,16.29-12.11a9.39,9.39,0,0,1,2-.89,1.27,1.27,0,0,1,0,.22.75.75,0,0,1-.12.43,11.45,11.45,0,0,0-2.59,3c-3,4.88-7.78,8.63-12.8,12.6-2.1,1.66-4.27,3.37-6.43,5.25a10.48,10.48,0,0,1-2.2,1.57l-.27.13Z"/><path class="cls-1" d="M242.73,134.43a4.21,4.21,0,0,1-2.06-.55,5.44,5.44,0,0,0-.5-.22c-2-.66-2-3-2-3.79s.2-1.7,1.62-4.44c1.61-3.13,3.46-6.2,5.25-9.16a96.21,96.21,0,0,0,7.61-14.4c.38-1,2.05-4.71,2.68-6.08,1.08-2.38,2.25-4.83,3.38-7.21,2.38-5,4.85-10.18,6.83-15.34a3.77,3.77,0,0,1,1.48-2c.86-.6,1.27-.67,4-.67,1,0,2.65.12,3.18,1a3.29,3.29,0,0,1,.63,1.67c0,.32-.22.69-.74,1.59l-.25.43c-2.52,4.41-4.12,7.74-6.33,12.36l-.38.78.35-.28A48.8,48.8,0,0,1,273,84.33c1.77-.89,2.14-1,3.26-1,1.84,0,2.53.46,2.53,1.68a3.68,3.68,0,0,1-1.5,2.69c-1,.73-3.2,2.5-4,3.22a115.41,115.41,0,0,0-13.19,14.55,26.83,26.83,0,0,0-2.8,4.26c-2.32,4.82-4.27,9.24-6.33,13.92-1.1,2.5-2.22,5-3.42,7.69A4.9,4.9,0,0,1,242.73,134.43Zm35.53-71.36c-2.51,0-4.18-.89-5-2.66a3.92,3.92,0,0,1-.32-1.83,7.53,7.53,0,0,1-.09-1.55c0-.5.23-.79.68-1.29a6.29,6.29,0,0,1,5.16-2.3,5.41,5.41,0,0,1,4.39,1.61c1.07,1,1.26,1.42,1.26,2.06A3.91,3.91,0,0,1,282.73,60a3.18,3.18,0,0,0-1,1.34C281.36,62.53,280.27,63.07,278.26,63.07Z"/><path class="cls-1" d="M278.72,53.94a4.93,4.93,0,0,1,4,1.47c1,1,1.1,1.26,1.1,1.7,0,2.07-2.3,2.66-2.67,4.13-.18.66-.73,1.33-2.94,1.33-1.48,0-3.59-.3-4.51-2.36a3.39,3.39,0,0,1-.28-1.63,7.84,7.84,0,0,1-.09-1.55c0-.29.09-.44.55-1a5.8,5.8,0,0,1,4.79-2.14M271,71.06c1.47,0,2.48.29,2.76.73a3,3,0,0,1,.55,1.41,8,8,0,0,1-.92,1.77c-2.49,4.35-4.05,7.6-6.35,12.39a13,13,0,0,0-.92,2c0,.07,0,.14.18.14s.55-.29,1.47-1a49.94,49.94,0,0,1,5.43-3.69c1.75-.89,2-1,3-1,1.93,0,2,.52,2,1.18A3.2,3.2,0,0,1,277,87.29c-1,.74-3.22,2.51-4.05,3.25a114.89,114.89,0,0,0-13.26,14.61,27.29,27.29,0,0,0-2.85,4.35c-3.59,7.45-6.35,14.1-9.76,21.62a4.42,4.42,0,0,1-4.32,2.81,5.52,5.52,0,0,1-2.39-.74c-1.57-.52-1.66-2.36-1.66-3.32,0-.59.18-1.55,1.56-4.21,4.14-8,9.67-15.35,12.89-23.61.37-1,2-4.65,2.67-6,3.31-7.31,7.27-14.91,10.21-22.58a3.29,3.29,0,0,1,1.29-1.77c.74-.52,1-.59,3.69-.59m7.73-18.12a6.81,6.81,0,0,0-5.52,2.45,2.29,2.29,0,0,0-.82,1.64,9.05,9.05,0,0,0,.09,1.61,4.3,4.3,0,0,0,.35,2c.89,2,2.71,3,5.44,3,.82,0,3.33,0,3.91-2.06a2.82,2.82,0,0,1,.9-1.12,4.39,4.39,0,0,0,1.8-3.28c0-.84-.32-1.38-1.42-2.42a5.85,5.85,0,0,0-4.73-1.75ZM271,70.06c-2.68,0-3.24,0-4.26.77a4.21,4.21,0,0,0-1.65,2.23c-2,5.15-4.43,10.31-6.81,15.31-1.13,2.38-2.3,4.83-3.38,7.21-.63,1.37-2.31,5.11-2.69,6.11A96.79,96.79,0,0,1,244.62,116c-1.79,3-3.64,6-5.27,9.18-1.47,2.84-1.67,3.92-1.67,4.67,0,2.32.79,3.75,2.34,4.27l.42.19a4.76,4.76,0,0,0,2.29.6,5.41,5.41,0,0,0,5.23-3.4c1.2-2.65,2.33-5.21,3.43-7.69,2.06-4.67,4-9.09,6.32-13.91a26.37,26.37,0,0,1,2.74-4.16,114.47,114.47,0,0,1,13.13-14.49c.8-.71,3-2.46,4-3.18a4.21,4.21,0,0,0,1.7-3.1c0-1.92-1.53-2.18-3-2.18-1.21,0-1.64.13-3.49,1.07a41.34,41.34,0,0,0-4.29,2.81c1.95-4.06,3.49-7.2,5.8-11.24l.24-.42c.57-1,.81-1.39.81-1.84a3.71,3.71,0,0,0-.71-1.94c-.62-1-2.3-1.2-3.6-1.2Z"/><path class="cls-1" d="M261,134.43a4.28,4.28,0,0,1-2.06-.55c-.17-.08-.33-.16-.49-.22-2-.66-2-3-2-3.79s.2-1.7,1.63-4.44c1.61-3.13,3.46-6.2,5.24-9.16a97.2,97.2,0,0,0,7.62-14.4c.38-1,2.09-4.81,2.68-6.08,1.08-2.38,2.24-4.83,3.38-7.21,2.38-5,4.84-10.18,6.82-15.34a3.82,3.82,0,0,1,1.48-2c.86-.6,1.27-.67,4-.67,1,0,2.66.12,3.19,1A3.29,3.29,0,0,1,293,73.2c0,.31-.21.68-.72,1.56l-.26.46c-2.52,4.41-4.12,7.74-6.34,12.36l-.38.78.36-.28a47.9,47.9,0,0,1,5.52-3.75c1.77-.89,2.14-1,3.26-1,1.84,0,2.52.46,2.52,1.68a3.66,3.66,0,0,1-1.49,2.69c-1,.73-3.21,2.5-4,3.22a115.52,115.52,0,0,0-13.2,14.55,26.64,26.64,0,0,0-2.79,4.26c-2.33,4.83-4.28,9.25-6.34,13.94-1.1,2.49-2.22,5-3.41,7.67A4.93,4.93,0,0,1,261,134.43Zm35.53-71.36c-2.51,0-4.18-.89-5-2.66a4.13,4.13,0,0,1-.31-1.83,7.1,7.1,0,0,1-.1-1.55c0-.5.22-.77.68-1.29a6.31,6.31,0,0,1,5.16-2.3,5.4,5.4,0,0,1,4.39,1.61c1,1,1.27,1.37,1.27,2.06A3.91,3.91,0,0,1,301,60a3.13,3.13,0,0,0-1,1.34C299.59,62.53,298.5,63.07,296.48,63.07Z"/><path class="cls-1" d="M296.94,53.94A4.9,4.9,0,0,1,301,55.41c1,1,1.11,1.26,1.11,1.7,0,2.07-2.3,2.66-2.67,4.13-.19.66-.74,1.33-2.95,1.33-1.47,0-3.59-.3-4.51-2.36a3.55,3.55,0,0,1-.27-1.63,7.07,7.07,0,0,1-.1-1.55c0-.29.1-.44.56-1a5.79,5.79,0,0,1,4.78-2.14m-7.73,17.12c1.47,0,2.49.29,2.76.73a2.85,2.85,0,0,1,.55,1.41A7.55,7.55,0,0,1,291.6,75c-2.48,4.35-4.05,7.6-6.35,12.39a14.72,14.72,0,0,0-.92,2c0,.07,0,.14.19.14s.55-.29,1.47-1a49.94,49.94,0,0,1,5.43-3.69c1.75-.89,2-1,3-1,1.93,0,2,.52,2,1.18a3.2,3.2,0,0,1-1.29,2.29c-1,.74-3.22,2.51-4.05,3.25a114.8,114.8,0,0,0-13.25,14.61A26.6,26.6,0,0,0,275,109.5c-3.59,7.45-6.35,14.1-9.76,21.62a4.43,4.43,0,0,1-4.33,2.81,5.61,5.61,0,0,1-2.39-.74c-1.56-.52-1.66-2.36-1.66-3.32,0-.59.19-1.55,1.57-4.21,4.14-8,9.66-15.35,12.88-23.61.37-1,2-4.65,2.67-6,3.32-7.31,7.28-14.91,10.22-22.58a3.29,3.29,0,0,1,1.29-1.77c.73-.52,1-.59,3.68-.59m7.73-18.12a6.79,6.79,0,0,0-5.51,2.45A2.3,2.3,0,0,0,290.6,57a7.6,7.6,0,0,0,.1,1.61,4.33,4.33,0,0,0,.35,2c.88,2,2.71,3,5.43,3,.83,0,3.34,0,3.91-2.06a2.86,2.86,0,0,1,.91-1.12,4.39,4.39,0,0,0,1.8-3.28c0-.84-.32-1.38-1.42-2.42a5.86,5.86,0,0,0-4.74-1.75Zm-7.73,17.12c-2.68,0-3.24,0-4.26.77a4.19,4.19,0,0,0-1.64,2.23c-2,5.15-4.44,10.31-6.82,15.31-1.13,2.38-2.3,4.83-3.38,7.21-.58,1.28-2.3,5.09-2.69,6.11A95.86,95.86,0,0,1,262.84,116c-1.79,3-3.64,6-5.26,9.18-1.47,2.84-1.68,3.92-1.68,4.67,0,2.32.79,3.75,2.35,4.27l.42.19a4.75,4.75,0,0,0,2.28.6,5.44,5.44,0,0,0,5.24-3.39c1.2-2.65,2.32-5.21,3.41-7.68,2.07-4.68,4-9.1,6.34-13.93a26.17,26.17,0,0,1,2.73-4.16,115.35,115.35,0,0,1,13.14-14.49c.8-.71,3-2.46,4-3.18a4.17,4.17,0,0,0,1.7-3.1c0-1.92-1.53-2.18-3-2.18-1.22,0-1.64.13-3.49,1.07a40.3,40.3,0,0,0-4.29,2.81c1.95-4.06,3.48-7.2,5.79-11.24l.26-.44c.56-1,.79-1.37.79-1.82a3.68,3.68,0,0,0-.7-1.94c-.62-1-2.31-1.2-3.61-1.2Z"/><path class="cls-1" d="M59.53,134.45a.5.5,0,0,1-.26-.08L.74,97.88a.49.49,0,0,1-.24-.42V33.14a.51.51,0,0,1,.26-.44L59.29.56a.51.51,0,0,1,.48,0L118.29,32.7a.51.51,0,0,1,.26.44V97.46a.49.49,0,0,1-.24.42L83,119.89,59.79,134.37A.5.5,0,0,1,59.53,134.45Z"/><path class="cls-1" d="M59.53,1l58.52,32.14V97.46l-35.31,22-15.36,9.58L59.53,134,1,97.46V33.14L59.53,1m0-1a1,1,0,0,0-.48.12L.52,32.26a1,1,0,0,0-.52.88V97.46a1,1,0,0,0,.47.85L59,134.8a1,1,0,0,0,1.06,0l7.85-4.9,15.36-9.58,35.31-22a1,1,0,0,0,.47-.85V33.14a1,1,0,0,0-.52-.88L60,.12A1,1,0,0,0,59.53,0Z"/><polygon class="cls-2" points="59.53 133.95 1 97.46 1 33.14 59.53 1 59.53 133.95"/><polygon class="cls-1" points="59.53 28.02 1 60.73 1 49.88 59.53 16 59.53 28.02"/><polygon class="cls-3" points="59.53 133.95 118.05 97.46 118.05 33.14 59.53 1 59.53 133.95"/><polygon class="cls-1" points="59.53 28.02 118.05 60.73 118.05 49.88 59.53 16 59.53 28.02"/><polygon class="cls-1" points="82.74 119.47 67.38 129.05 67.38 76.74 82.74 84.5 82.74 119.47"/><path class="cls-4" d="M101.72,78.21c.46-1.4,2-4.28,2.85-7,0-.22-.09-.37-.27-.37a1.62,1.62,0,0,1-1-.36,6.21,6.21,0,0,1-1.56-1.85,1.21,1.21,0,0,1-.37-.81c0-1,.64-1.62,2.85-3a102.39,102.39,0,0,1,11.69-6.56,31,31,0,0,1,13.44-3c2.76,0,4.23.07,5.71,1.55,1.75,1.7,2.11,2.14,2.11,4.8a14.36,14.36,0,0,1-.92,4.5c-.64,1.69-1.19,2.65-3.4,6.2a54.71,54.71,0,0,1-14.08,14.9,12.29,12.29,0,0,1-2.86,1.4,17.73,17.73,0,0,1-5.43.82c-1.93,0-2.85-.15-3.86-1C106,88,106,88,105.77,88s-.28.15-.65,1a133.79,133.79,0,0,0-5.61,16.67c0,.37-.18.52-.55.82a3.68,3.68,0,0,1-2.58.66c-.83,0-1.38,0-1.66-.3a4.07,4.07,0,0,0-1.29-.88c-1-.37-1.38-1-1.38-1.33a6.57,6.57,0,0,1,.37-1.4c.74-2.29,2.12-7.16,3.22-9.52a6.8,6.8,0,0,0,.56-1.55c.36-1.77,2.2-5.46,3.22-7.82a3.3,3.3,0,0,0,.46-1.48.75.75,0,0,0-.28-.44c-.64-.52-1.29-1-1.29-1.92s.37-.59.65-.81a4.36,4.36,0,0,1,2.21-.81C101.44,78.8,101.53,78.73,101.72,78.21ZM127.86,61c-4.33,1.18-8.93,1.62-12.61,4.94-2.3,5.39-5.34,10.85-6.91,16.09a14.93,14.93,0,0,0,2.4,2,2.09,2.09,0,0,0,.83.37c.55,0,.92-.08,3.31-1.92A43,43,0,0,0,125.1,71.28c2.3-3.84,4.32-8,4.32-10.11,0-.22-.27-.37-.73-.37A2.92,2.92,0,0,0,127.86,61Z"/><path class="cls-4" d="M152.07,80.43c-8.47,4.2-16,10.4-19.42,21.25a7.52,7.52,0,0,1-1.66,2.66c-.83.88-1.2,1-2.58,1a3,3,0,0,1-2.48-1.32c-.46-.82-1.29-1.55-1.29-3,0-2.29,3.22-4.57,4.6-7.82a145.67,145.67,0,0,0,6.35-16.31A5.7,5.7,0,0,0,136,75c0-.89-.46-.89-.46-1.7,0-.22.37-.67.92-1a4.28,4.28,0,0,1,2.76-.59,6.62,6.62,0,0,1,2.21.22c.55.22.74.29.92.66a7.21,7.21,0,0,1,.83,3.54,7.39,7.39,0,0,1-.46,2.44c-.28.66-.28.66-.28.74s.09.14.19.14.18-.07.46-.29a41.38,41.38,0,0,1,8.37-4.72,5.21,5.21,0,0,1,2.67-.59c3,0,4.88.59,6,2.06a2.4,2.4,0,0,1,.37,1.33,3.05,3.05,0,0,1-1.19,2.36,3.61,3.61,0,0,1-2.58.89,12.87,12.87,0,0,1-2.95-.67C153.45,79.76,153.26,79.84,152.07,80.43Z"/><path class="cls-4" d="M177.38,80.57c-2.49,7.9-5.71,14.76-10.86,19.78a28,28,0,0,1-2.58,2.36c-1.84,1.48-2.95,2.07-5.15,2.07a5.52,5.52,0,0,1-2.49-.44c-2.58-1.33-4.69-3.25-5.15-4.58a13.23,13.23,0,0,1-.56-4.57,14.86,14.86,0,0,1,.56-4.73c1.1-4.5,3.77-8.48,6.71-12.47,1.29-1.7,1.48-1.92,1.85-2.36.27-.29.46-.52,1-1.18,2.48-3,5.43-6.27,9.57-6.27,2.12,0,3.41.29,4.6,1.4a3.31,3.31,0,0,1,.92,1.25,8.43,8.43,0,0,0,1.11,2.73,2.4,2.4,0,0,0,1.75,1.26c2.11,0,3.86-.22,6.07-.22,3.41,0,5.25.81,5.25,2,0,.89-1.75,1-2.3,1.62-.28.3-.37.3-.83.37-1.57.22-3.68,1-5.62,1.26a25.2,25.2,0,0,1-3.31.22C177.56,80.06,177.47,80.28,177.38,80.57ZM159.52,98.8A10,10,0,0,0,161,97c4.24-5.61,7.92-10.48,9.12-16.6a25.16,25.16,0,0,0,.46-3.84c0-.59-.65-1.25-.83-1.77s-.28-.59-.37-.59-.18,0-.46.22a10.18,10.18,0,0,0-1.11.89c-.27.36-7,7.6-9.84,15.64a21.85,21.85,0,0,0-1.11,5.24,3.09,3.09,0,0,0,.65,1.84c.73,1.11.82,1.18,1.1,1.18A1.51,1.51,0,0,0,159.52,98.8Z"/><path class="cls-2" d="M217.69,77.62c2.95-.88,3.41-1,4.24-1,2.76,0,2.85.67,3.77.74a3,3,0,0,1,2.21,1.85,2.86,2.86,0,0,1,.46,1.69c0,1.11-.19,1.18-1.29,1.18a42.9,42.9,0,0,0-6.17.67c-2.3.44-5,1.1-6.26,1.33-.82.14-1,.29-1.28.66-1.66,2.29-2.4,5.17-3.5,7.9-2,4.94-3,10.11-4,14.9-.09.44-.55,1.11-2.48,1.11a9.46,9.46,0,0,1-3.69-.67c-.92-.29-1.29-2.5-1.29-2.87a8.9,8.9,0,0,1,.47-2.88c1.65-4.21,2.94-9.59,4.6-13.58a8.08,8.08,0,0,0,.55-1.84c0-.15-.09-.37-.28-.37a6.27,6.27,0,0,0-1.1.15c-2.39.44-7.36,1.32-8.47,1.62-.92.22-.92.22-1.66,1.7-1.47,3-2.39,7.6-2.94,8.48a5.6,5.6,0,0,0-.55,2.81c0,.81.18,1.77.18,2.28a2.67,2.67,0,0,1-.55,1.77c-.37.45-1,.45-1.93.45-1.84,0-2.21-.15-2.67-.52s-1.66-.74-2-1.18a2.34,2.34,0,0,0-.83-.74c-.55-.22-.55-.29-.55-.74a14.48,14.48,0,0,1,.55-2.73,10.8,10.8,0,0,0,.37-1.25c.37-1.85,1.93-6.72,1.93-7.31,0-.29-.18-.29-.27-.29s-1.66.22-3,.22c-2.67,0-4.23-.37-5.24-1.77a10.44,10.44,0,0,1-.46-3.25c0-.59.27-1.1,2-1.1,1.47,0,2.49.59,3.31.59a53.1,53.1,0,0,0,5.71-1c.37-.08.46-.22.74-.74,1.47-2.73,2.3-5.9,3.68-8.63A221,221,0,0,1,201,55.49c.92-1.41,1.11-1.41,3.22-1.41,1.48,0,1.84.67,3.32,1.11.92.3,1.29.89,1.29,1.4a1.94,1.94,0,0,1-.56,1.4c-5.15,6.65-7.08,13.43-12.15,22.14a3.87,3.87,0,0,0-.73,1.92.26.26,0,0,0,.27.3,7.39,7.39,0,0,0,1.29-.23c1.94-.36,5.34-1,8.29-1.84,1.1-.3,1.28-.37,1.65-1a134.58,134.58,0,0,0,7-15.43c.55-1.4.64-1.62.73-1.92s.56-.59.83-.88c.55-.59,1-.74,2.49-.74s1.84.22,2.57.22a2.76,2.76,0,0,1,2,.52,1.53,1.53,0,0,1,.55,1.25,11.3,11.3,0,0,1-1,3.62c-1.75,3.91-3.87,7.23-5.52,10.85a3,3,0,0,0-.37,1c0,.14.18.22.37.22A7.94,7.94,0,0,0,217.69,77.62Z"/><path class="cls-2" d="M236.84,98.87a24.24,24.24,0,0,1-8.29,5.24,6.76,6.76,0,0,1-2.85.67,3.21,3.21,0,0,1-2.21-.67,20.69,20.69,0,0,1-3.31-2.73A4.38,4.38,0,0,1,218.8,98c0-1.77.55-5.76,5.34-11.88a54.43,54.43,0,0,1,11.5-11c3.13-2.21,10.31-6,14.73-6a6.48,6.48,0,0,1,5.06,2.14,5.05,5.05,0,0,1,.83,1.48c.18.44.92,1.4,1.47,1.4,1.93,0,2.3,1,2.3,1.48a1.08,1.08,0,0,1-.27.73c-3.59,4.36-7.92,10-9.94,15.65a25,25,0,0,0-1.66,7.38,11,11,0,0,0,.92,4.13c.37.74.37.81.37,1s-.28.88-1.57,1.11a10.15,10.15,0,0,1-2.12.29c-2.11,0-3.68-.74-3.95-1.55a13.7,13.7,0,0,1-.74-4.65,22.94,22.94,0,0,1,.46-4.2c0-.15,0-.22-.18-.22A38.6,38.6,0,0,0,236.84,98.87Zm11.32-24a58.81,58.81,0,0,0-16.57,12.33c-3.4,3.76-6.35,8.26-6.35,10.47,0,1.26.28,1.48.55,1.48a2.24,2.24,0,0,0,1.2-.37,11.12,11.12,0,0,0,2.39-1.7c7.37-6.42,15-11,19.42-18.08a10.41,10.41,0,0,1,2.4-2.73,1.61,1.61,0,0,0,.46-1.18c0-.88-.46-1.25-.74-1.25C250.46,73.86,250,73.93,248.16,74.89Z"/><path class="cls-2" d="M267.76,88.47a49.94,49.94,0,0,1,5.43-3.69c1.75-.89,2-1,3-1,1.93,0,2,.52,2,1.18A3.2,3.2,0,0,1,277,87.29c-1,.74-3.22,2.51-4.05,3.25a114.89,114.89,0,0,0-13.26,14.61,27.29,27.29,0,0,0-2.85,4.35c-3.59,7.45-6.35,14.1-9.76,21.62a4.42,4.42,0,0,1-4.32,2.81,5.52,5.52,0,0,1-2.39-.74c-1.57-.52-1.66-2.36-1.66-3.32,0-.59.18-1.55,1.56-4.21,4.14-8,9.67-15.35,12.89-23.61.37-1,2-4.65,2.67-6,3.31-7.31,7.27-14.91,10.21-22.58a3.29,3.29,0,0,1,1.29-1.77c.74-.52,1-.59,3.69-.59,1.47,0,2.48.29,2.76.73a3,3,0,0,1,.55,1.41,8,8,0,0,1-.92,1.77c-2.49,4.35-4.05,7.6-6.35,12.39a13,13,0,0,0-.92,2c0,.07,0,.14.18.14S266.84,89.21,267.76,88.47Zm16.11-31.36c0,2.07-2.3,2.66-2.67,4.13-.18.66-.73,1.33-2.94,1.33-1.48,0-3.59-.3-4.51-2.36a3.39,3.39,0,0,1-.28-1.63,7.84,7.84,0,0,1-.09-1.55c0-.29.09-.44.55-1a5.8,5.8,0,0,1,4.79-2.14,4.93,4.93,0,0,1,4,1.47C283.78,56.37,283.87,56.67,283.87,57.11Z"/><path class="cls-2" d="M286,88.47a49.94,49.94,0,0,1,5.43-3.69c1.75-.89,2-1,3-1,1.93,0,2,.52,2,1.18a3.2,3.2,0,0,1-1.29,2.29c-1,.74-3.22,2.51-4.05,3.25a114.8,114.8,0,0,0-13.25,14.61A26.6,26.6,0,0,0,275,109.5c-3.59,7.45-6.35,14.1-9.76,21.62a4.43,4.43,0,0,1-4.33,2.81,5.61,5.61,0,0,1-2.39-.74c-1.56-.52-1.66-2.36-1.66-3.32,0-.59.19-1.55,1.57-4.21,4.14-8,9.66-15.35,12.88-23.61.37-1,2-4.65,2.67-6,3.32-7.31,7.28-14.91,10.22-22.58a3.29,3.29,0,0,1,1.29-1.77c.73-.52,1-.59,3.68-.59,1.47,0,2.49.29,2.76.73a2.85,2.85,0,0,1,.55,1.41A7.55,7.55,0,0,1,291.6,75c-2.48,4.35-4.05,7.6-6.35,12.39a14.72,14.72,0,0,0-.92,2c0,.07,0,.14.19.14S285.07,89.21,286,88.47ZM302.1,57.11c0,2.07-2.3,2.66-2.67,4.13-.19.66-.74,1.33-2.95,1.33-1.47,0-3.59-.3-4.51-2.36a3.55,3.55,0,0,1-.27-1.63,7.07,7.07,0,0,1-.1-1.55c0-.29.1-.44.56-1a5.79,5.79,0,0,1,4.78-2.14A4.9,4.9,0,0,1,301,55.41C302,56.37,302.1,56.67,302.1,57.11Z"/></g></g></svg>